<svg xmlns="http://www.w3.org/2000/svg" viewBox="0 0 551.23 506.06"><defs><style>.cls-1{fill:#53b8bb;}</style></defs><g id="Layer_2" data-name="Layer 2"><g id="Layer_1-2" data-name="Layer 1"><path class="cls-1" d="M88.25,14C113.42-.55,144.53-3.51,172.61,4c28.33,7.54,53,24.83,80.44,35.28C316.39,63.41,390.44,49.88,451.47,79.4c7.81,3.78,15.5,8.4,20.74,15.3,7,9.23,8.79,21.25,11,32.63,3.68,19,9.19,37.73,17.89,55,9.08,18,21.48,34.17,30.79,52.06a173.43,173.43,0,0,1,16.5,110.75C546,358,541.48,371.5,530.83,379.06c-11.61,8.22-27.1,7.17-41,10-31.23,6.42-54,32.41-75.59,55.85-26.35,28.59-57.7,57.06-96.41,60.71-52.83,5-101.41-38-154.24-33-24.4,2.3-46.57,14.65-70.08,21.6S41.3,501.4,24.56,483.5c-7-7.47-11-17.25-13.48-27.17-8.71-34.89.34-71.65,11.83-105.72,7.39-21.9,15.93-44.56,12.76-67.45C30.8,248-.83,219.44,0,184c.62-26.14,18.35-47.47,30.55-69.26C43.19,92.18,41.51,66.65,55.69,44.88A97,97,0,0,1,88.25,14Z"/></g></g></svg>